<?xml version="1.0" standalone="no"?><!DOCTYPE svg PUBLIC "-//W3C//DTD SVG 1.1//EN" "http://www.w3.org/Graphics/SVG/1.1/DTD/svg11.dtd"><svg t="1563781535459" class="icon" viewBox="0 0 1024 1024" version="1.1" xmlns="http://www.w3.org/2000/svg" p-id="1973" xmlns:xlink="http://www.w3.org/1999/xlink" width="200" height="200"><defs><style type="text/css">:not([class*="icon"]):not([class*="fa"]):not([class*="logo"]):not([class*="mi"]):not([class*="hwic"]):not([class*="code"]):not(i) { font-family: "Microsoft Yahei", Arial, "Material Icons Extended", stonefont, iknow-qb_share_icons, review-iconfont, mui-act-font, fontAwesome, tm-detail-font, office365icons, MWF-MDL2, global-iconfont, Bowtie, myfont, sans-serif !important; }
:not([class*="icon"]):not([class*="fa"]):not([class*="logo"]):not([class*="mi"]):not([class*="code"]):not(i) { font-family: "Microsoft Yahei", Arial, "Material Icons Extended", stonefont, iknow-qb_share_icons, review-iconfont, mui-act-font, fontAwesome, tm-detail-font, office365icons, MWF-MDL2, global-iconfont, Bowtie, myfont !important; }
</style></defs><path d="M895.469672 127.981836H127.941927c-35.322483 0-63.956637 28.634154-63.956637 63.956638v511.693008c0 35.322483 28.634154 63.956637 63.956637 63.956637h127.921462v160.1597c0 0.048095 0.00921 0.093121 0.010233 0.141216 0.214894 17.477047 14.44192 31.581276 31.970132 31.581276 10.175757 0 19.234063-4.758374 25.091468-12.165064l180.350554-179.717128H895.468648c35.322483 0 63.956637-28.634154 63.956638-63.956637V191.938474c0.001023-35.322483-28.633131-63.956637-63.955614-63.956638z m0 543.92306c0 17.520025-14.202467 31.722492-31.722493 31.722493H456.955336L319.824119 838.711993V703.627389H159.66442c-17.520025 0-31.722492-14.202467-31.722493-31.722493V223.665059c0-17.520025 14.202467-31.722492 31.722493-31.722492h704.082759c17.520025 0 31.722492 14.202467 31.722493 31.722492v448.239837z" fill="" p-id="1974"></path><path d="M767.54821 352.101243c0 17.520025-14.202467 31.722492-31.722492 31.722493H287.585881c-17.520025 0-31.722492-14.202467-31.722492-31.722493v-0.515746c0-17.520025 14.202467-31.722492 31.722492-31.722492h448.239837c17.520025 0 31.722492 14.202467 31.722492 31.722492v0.515746zM639.627772 480.022705c0 17.520025-14.202467 31.722492-31.722492 31.722492H287.585881c-17.520025 0-31.722492-14.202467-31.722492-31.722492v-0.515747c0-17.520025 14.202467-31.722492 31.722492-31.722492h320.318376c17.520025 0 31.722492 14.202467 31.722492 31.722492v0.515747z" fill="" p-id="1975"></path></svg>